<?xml version="1.0" encoding="iso-8859-1"?>
<!-- Generator: Adobe Illustrator 17.1.0, SVG Export Plug-In . SVG Version: 6.00 Build 0)  -->
<!DOCTYPE svg PUBLIC "-//W3C//DTD SVG 1.1//EN" "http://www.w3.org/Graphics/SVG/1.1/DTD/svg11.dtd">
<svg version="1.1" id="Layer_1" xmlns="http://www.w3.org/2000/svg" xmlns:xlink="http://www.w3.org/1999/xlink" x="0px" y="0px"
	 viewBox="0 0 32 32" style="enable-background:new 0 0 32 32;" xml:space="preserve">
<path style="fill:#231F20;" d="M17.75,24c1.509,0,2.984-0.429,4.268-1.241c0.144-0.091,0.232-0.251,0.232-0.422
	c0-0.171-0.088-0.331-0.232-0.422C19.972,20.62,18.75,18.409,18.75,16s1.222-4.62,3.268-5.914c0.144-0.091,0.232-0.251,0.232-0.422
	c0-0.171-0.088-0.331-0.232-0.422C20.734,8.429,19.259,8,17.75,8c-4.411,0-8,3.589-8,8S13.339,24,17.75,24z M17.75,9
	c1.064,0,2.11,0.245,3.064,0.712C18.882,11.224,17.75,13.52,17.75,16s1.132,4.776,3.064,6.288C19.86,22.755,18.814,23,17.75,23
	c-3.859,0-7-3.14-7-7S13.891,9,17.75,9z"/>
</svg>
