<?xml version="1.0" encoding="iso-8859-1"?>
<!-- Generator: Adobe Illustrator 17.1.0, SVG Export Plug-In . SVG Version: 6.00 Build 0)  -->
<!DOCTYPE svg PUBLIC "-//W3C//DTD SVG 1.1//EN" "http://www.w3.org/Graphics/SVG/1.1/DTD/svg11.dtd">
<svg version="1.1" id="Layer_1" xmlns="http://www.w3.org/2000/svg" xmlns:xlink="http://www.w3.org/1999/xlink" x="0px" y="0px"
	 viewBox="0 0 32 32" style="enable-background:new 0 0 32 32;" xml:space="preserve">
<path style="fill:#231F20;" d="M23.619,14.736c-0.66-2.346-2.823-4.008-5.294-4.008c-0.833,0-1.617,0.204-2.327,0.54
	c-0.231-1.32-0.838-2.547-1.796-3.505c-0.873-0.873-1.976-1.479-3.189-1.752c-0.169-0.04-0.343,0.013-0.463,0.134
	c-0.121,0.121-0.172,0.296-0.134,0.463c0.422,1.873-0.133,3.797-1.483,5.148c-1.35,1.35-3.276,1.904-5.147,1.483
	c-0.168-0.039-0.343,0.013-0.463,0.134c-0.121,0.121-0.172,0.296-0.134,0.463c0.273,1.213,0.878,2.315,1.752,3.189
	c0.414,0.414,0.888,0.748,1.39,1.036c-0.32,0.708-0.504,1.487-0.504,2.302c0,3.055,2.519,5.636,5.5,5.636h12
	c2.981,0,5.5-2.581,5.5-5.636C28.825,17.41,26.47,14.898,23.619,14.736z M5.646,16.319c-0.56-0.56-0.99-1.232-1.267-1.973
	c1.943,0.195,3.861-0.484,5.26-1.883c1.399-1.399,2.075-3.318,1.883-5.26c0.74,0.276,1.413,0.707,1.973,1.267
	c0.902,0.902,1.446,2.085,1.578,3.348c-1.024,0.763-1.785,1.869-2.083,3.175c-0.543-0.176-1.101-0.265-1.665-0.265
	c-1.843,0-3.508,0.988-4.511,2.464C6.393,16.948,5.995,16.667,5.646,16.319z M23.325,25h-12c-2.439,0-4.5-2.123-4.5-4.636
	s2.061-4.636,4.5-4.636c0.63,0,1.252,0.137,1.849,0.408c0.146,0.066,0.314,0.058,0.454-0.021c0.139-0.079,0.232-0.22,0.25-0.379
	c0.252-2.285,2.165-4.007,4.448-4.007c2.135,0,3.99,1.518,4.41,3.609c0.047,0.233,0.252,0.401,0.49,0.401
	c0.051,0.001,0.085-0.004,0.1-0.01c2.439,0,4.5,2.123,4.5,4.636S25.765,25,23.325,25z"/>
</svg>
