<?xml version="1.0" encoding="iso-8859-1"?>
<!-- Generator: Adobe Illustrator 17.1.0, SVG Export Plug-In . SVG Version: 6.00 Build 0)  -->
<!DOCTYPE svg PUBLIC "-//W3C//DTD SVG 1.1//EN" "http://www.w3.org/Graphics/SVG/1.1/DTD/svg11.dtd">
<svg version="1.1" id="Layer_1" xmlns="http://www.w3.org/2000/svg" xmlns:xlink="http://www.w3.org/1999/xlink" x="0px" y="0px"
	 viewBox="0 0 32 32" style="enable-background:new 0 0 32 32;" xml:space="preserve">
<path style="fill:#231F20;" d="M5.821,12.538c-0.102,0.256,0.023,0.547,0.279,0.649c0.061,0.024,0.124,0.036,0.185,0.036
	c0.198,0,0.387-0.119,0.465-0.315C7.818,10.23,10.371,8.5,13.255,8.5c0.276,0,0.5-0.224,0.5-0.5c0-0.276-0.224-0.5-0.5-0.5
	C9.96,7.5,7.042,9.477,5.821,12.538z"/>
<path style="fill:#231F20;" d="M4.101,10.187c0.062,0.024,0.124,0.036,0.185,0.036c0.198,0,0.387-0.119,0.465-0.315
	C5.818,7.23,8.371,5.5,11.255,5.5c0.276,0,0.5-0.224,0.5-0.5s-0.224-0.5-0.5-0.5c-3.295,0-6.213,1.977-7.434,5.038
	C3.72,9.794,3.845,10.085,4.101,10.187z"/>
<path style="fill:#231F20;" d="M8.714,27h12c2.93,0,5.5-2.804,5.5-6c0-0.57-0.083-1.127-0.234-1.658
	c1.869-0.464,3.234-2.139,3.234-4.092c0-2.212-1.698-4.035-3.932-4.226C24.749,9.25,23.097,8,21.214,8
	c-1.958,0-3.615,1.344-4.087,3.204C16.672,11.082,16.202,11,15.714,11c-2.579,0-4.771,1.793-5.336,4.265
	C9.836,15.089,9.278,15,8.714,15c-2.93,0-5.5,2.804-5.5,6S5.784,27,8.714,27z M21.214,9c1.542,0,2.881,1.096,3.184,2.606
	c0.047,0.236,0.323,0.372,0.566,0.394c1.792,0,3.25,1.458,3.25,3.25c0,1.531-1.1,2.84-2.588,3.152
	c-0.879-1.882-2.647-3.266-4.618-3.392c-0.436-1.549-1.533-2.787-2.935-3.459C18.397,10.077,19.684,9,21.214,9z M8.714,16
	c0.63,0,1.252,0.137,1.849,0.408c0.146,0.067,0.315,0.058,0.453-0.021c0.14-0.079,0.232-0.22,0.25-0.379
	C11.518,13.723,13.431,12,15.714,12c2.135,0,3.989,1.518,4.41,3.609c0.048,0.238,0.254,0.397,0.505,0.401
	c0.036-0.001,0.071-0.005,0.085-0.01c2.575,0,4.5,2.64,4.5,5s-1.925,5-4.5,5h-12c-2.575,0-4.5-2.64-4.5-5S6.139,16,8.714,16z"/>
</svg>
