<?xml version="1.0" encoding="iso-8859-1"?>
<!-- Generator: Adobe Illustrator 17.1.0, SVG Export Plug-In . SVG Version: 6.00 Build 0)  -->
<!DOCTYPE svg PUBLIC "-//W3C//DTD SVG 1.1//EN" "http://www.w3.org/Graphics/SVG/1.1/DTD/svg11.dtd">
<svg version="1.1" id="Layer_1" xmlns="http://www.w3.org/2000/svg" xmlns:xlink="http://www.w3.org/1999/xlink" x="0px" y="0px"
	 viewBox="0 0 32 32" style="enable-background:new 0 0 32 32;" xml:space="preserve">
<path style="fill:#231F20;" d="M8.646,24.896l-2.497,2.497c-0.195,0.195-0.195,0.512,0,0.707c0.098,0.098,0.226,0.147,0.354,0.147
	c0.128,0,0.256-0.049,0.353-0.147l2.497-2.497c0.195-0.195,0.195-0.512,0-0.707C9.158,24.701,8.842,24.701,8.646,24.896z"/>
<path style="fill:#231F20;" d="M12.646,24.896l-2.497,2.497c-0.195,0.195-0.195,0.512,0,0.707c0.098,0.098,0.226,0.147,0.354,0.147
	c0.128,0,0.256-0.049,0.353-0.147l2.497-2.497c0.195-0.195,0.195-0.512,0-0.707C13.158,24.701,12.842,24.701,12.646,24.896z"/>
<path style="fill:#231F20;" d="M16.646,24.896l-2.497,2.497c-0.195,0.195-0.195,0.512,0,0.707c0.098,0.098,0.226,0.147,0.354,0.147
	c0.128,0,0.256-0.049,0.353-0.147l2.497-2.497c0.195-0.195,0.195-0.512,0-0.707C17.158,24.701,16.842,24.701,16.646,24.896z"/>
<path style="fill:#231F20;" d="M20.646,24.896l-2.497,2.497c-0.195,0.195-0.195,0.512,0,0.707c0.098,0.098,0.226,0.147,0.354,0.147
	c0.128,0,0.256-0.049,0.354-0.147l2.497-2.497c0.195-0.195,0.195-0.512,0-0.707C21.158,24.701,20.842,24.701,20.646,24.896z"/>
<path style="fill:#231F20;" d="M9.621,23h12c3.032,0,5.5-2.477,5.5-5.521c0-1.269-0.447-2.424-1.166-3.358
	c1.222-1.102,1.924-2.652,1.924-4.309c0-3.206-2.608-5.814-5.813-5.814c-2.484,0-4.712,1.624-5.5,3.965
	c-2.554,0.026-4.719,1.807-5.28,4.26c-0.542-0.176-1.1-0.265-1.664-0.265c-3.032,0-5.5,2.477-5.5,5.521
	C4.121,20.523,6.589,23,9.621,23z M22.065,4.999c2.654,0,4.813,2.16,4.813,4.814c0,1.376-0.585,2.663-1.602,3.576
	c-0.906-0.817-2.068-1.354-3.363-1.422c-0.571-2.029-2.268-3.542-4.314-3.914C18.318,6.24,20.091,4.999,22.065,4.999z M9.621,12.958
	c0.63,0,1.252,0.137,1.849,0.408c0.145,0.066,0.314,0.058,0.453-0.021c0.14-0.079,0.232-0.22,0.25-0.38
	c0.252-2.284,2.165-4.007,4.448-4.007c2.135,0,3.989,1.518,4.409,3.608c0.047,0.233,0.252,0.401,0.49,0.401
	c0.038,0.001,0.082-0.004,0.101-0.01c2.481,0,4.5,2.028,4.5,4.521S24.102,22,21.621,22h-12c-2.481,0-4.5-2.028-4.5-4.521
	S7.14,12.958,9.621,12.958z"/>
</svg>
