<?xml version="1.0" encoding="iso-8859-1"?>
<!-- Generator: Adobe Illustrator 17.1.0, SVG Export Plug-In . SVG Version: 6.00 Build 0)  -->
<!DOCTYPE svg PUBLIC "-//W3C//DTD SVG 1.1//EN" "http://www.w3.org/Graphics/SVG/1.1/DTD/svg11.dtd">
<svg version="1.1" id="Layer_1" xmlns="http://www.w3.org/2000/svg" xmlns:xlink="http://www.w3.org/1999/xlink" x="0px" y="0px"
	 viewBox="0 0 32 32" style="enable-background:new 0 0 32 32;" xml:space="preserve">
<path style="fill:#231F20;" d="M23.619,11.613c-0.66-2.346-2.823-4.008-5.294-4.008c-0.833,0-1.617,0.204-2.327,0.54
	c-0.231-1.32-0.838-2.547-1.796-3.505c-0.873-0.874-1.976-1.479-3.189-1.752c-0.168-0.039-0.342,0.013-0.463,0.134
	c-0.121,0.121-0.172,0.296-0.134,0.463c0.422,1.873-0.133,3.797-1.483,5.148c-1.351,1.35-3.273,1.906-5.147,1.483
	c-0.169-0.039-0.342,0.013-0.463,0.134c-0.121,0.121-0.172,0.296-0.134,0.463c0.273,1.213,0.878,2.315,1.752,3.189
	c0.418,0.418,0.896,0.755,1.403,1.044c-0.328,0.723-0.517,1.52-0.517,2.356c0,3.088,2.519,5.697,5.5,5.697h12
	c2.981,0,5.5-2.609,5.5-5.697C28.825,14.316,26.47,11.778,23.619,11.613z M5.646,13.196c-0.56-0.56-0.99-1.232-1.267-1.973
	c1.94,0.194,3.861-0.485,5.26-1.883c1.399-1.399,2.075-3.318,1.883-5.26c0.74,0.276,1.413,0.707,1.973,1.267
	c0.903,0.902,1.446,2.086,1.578,3.348c-1.024,0.763-1.785,1.869-2.083,3.175c-0.543-0.176-1.101-0.265-1.665-0.265
	c-1.835,0-3.493,0.991-4.498,2.472C6.401,13.833,5.998,13.548,5.646,13.196z M23.325,22h-12c-2.439,0-4.5-2.151-4.5-4.697
	s2.061-4.698,4.5-4.698c0.63,0,1.252,0.137,1.849,0.408c0.145,0.065,0.313,0.058,0.454-0.021c0.139-0.079,0.232-0.22,0.25-0.379
	c0.252-2.285,2.165-4.007,4.448-4.007c2.135,0,3.99,1.518,4.41,3.609c0.048,0.238,0.235,0.397,0.504,0.401
	c0.037-0.001,0.072-0.005,0.085-0.01c2.439,0,4.5,2.151,4.5,4.698S25.765,22,23.325,22z"/>
<path style="fill:#231F20;" d="M6.856,27.978l2.497-2.497c0.195-0.195,0.195-0.512,0-0.707c-0.195-0.195-0.512-0.195-0.707,0
	l-2.497,2.497c-0.195,0.195-0.195,0.512,0,0.707c0.098,0.098,0.226,0.146,0.353,0.146C6.631,28.124,6.759,28.075,6.856,27.978z"/>
<path style="fill:#231F20;" d="M10.856,27.978l2.497-2.497c0.195-0.195,0.195-0.512,0-0.707c-0.195-0.195-0.512-0.195-0.707,0
	l-2.497,2.497c-0.195,0.195-0.195,0.512,0,0.707c0.098,0.098,0.226,0.146,0.354,0.146C10.631,28.124,10.759,28.075,10.856,27.978z"
	/>
<path style="fill:#231F20;" d="M14.856,27.978l2.497-2.497c0.195-0.195,0.195-0.512,0-0.707c-0.195-0.195-0.512-0.195-0.707,0
	l-2.497,2.497c-0.195,0.195-0.195,0.512,0,0.707c0.098,0.098,0.226,0.146,0.354,0.146C14.631,28.124,14.759,28.075,14.856,27.978z"
	/>
<path style="fill:#231F20;" d="M18.856,27.978l2.497-2.497c0.195-0.195,0.195-0.512,0-0.707c-0.195-0.195-0.512-0.195-0.707,0
	l-2.497,2.497c-0.195,0.195-0.195,0.512,0,0.707c0.098,0.098,0.226,0.146,0.353,0.146C18.631,28.124,18.759,28.075,18.856,27.978z"
	/>
</svg>
