<?xml version="1.0" encoding="iso-8859-1"?>
<!-- Generator: Adobe Illustrator 17.1.0, SVG Export Plug-In . SVG Version: 6.00 Build 0)  -->
<!DOCTYPE svg PUBLIC "-//W3C//DTD SVG 1.1//EN" "http://www.w3.org/Graphics/SVG/1.1/DTD/svg11.dtd">
<svg version="1.1" id="Layer_1" xmlns="http://www.w3.org/2000/svg" xmlns:xlink="http://www.w3.org/1999/xlink" x="0px" y="0px"
	 viewBox="0 0 32 32" style="enable-background:new 0 0 32 32;" xml:space="preserve">
<path style="fill:#231F20;" d="M28.125,14.25c0-3.014-2.355-5.576-5.207-5.742C22.258,6.163,20.095,4.5,17.625,4.5
	c-2.579,0-4.771,1.793-5.335,4.265C11.747,8.589,11.189,8.5,10.625,8.5c-2.981,0-5.5,2.633-5.5,5.75S7.644,20,10.625,20h12
	C25.606,20,28.125,17.367,28.125,14.25z M6.125,14.25c0-2.575,2.061-4.75,4.5-4.75c0.63,0,1.252,0.137,1.849,0.408
	c0.146,0.065,0.315,0.058,0.454-0.021c0.139-0.079,0.232-0.22,0.25-0.379C13.43,7.223,15.342,5.5,17.625,5.5
	c2.135,0,3.99,1.518,4.41,3.609c0.047,0.238,0.22,0.396,0.504,0.401c0.037-0.002,0.072-0.005,0.086-0.01c2.44,0,4.5,2.175,4.5,4.75
	s-2.06,4.75-4.5,4.75h-12C8.186,19,6.125,16.825,6.125,14.25z"/>
<path style="fill:#231F20;" d="M9.729,21.646c-0.195-0.195-0.512-0.195-0.707,0l-2.497,2.497c-0.195,0.195-0.195,0.512,0,0.707
	c0.098,0.098,0.226,0.147,0.354,0.147c0.128,0,0.256-0.049,0.354-0.147l2.497-2.497C9.924,22.158,9.924,21.842,9.729,21.646z"/>
<path style="fill:#231F20;" d="M13.729,21.646c-0.195-0.195-0.512-0.195-0.707,0l-2.497,2.497c-0.195,0.195-0.195,0.512,0,0.707
	c0.098,0.098,0.226,0.147,0.354,0.147c0.128,0,0.256-0.049,0.353-0.147l2.497-2.497C13.924,22.158,13.924,21.842,13.729,21.646z"/>
<path style="fill:#231F20;" d="M17.729,21.646c-0.195-0.195-0.512-0.195-0.707,0l-2.497,2.497c-0.195,0.195-0.195,0.512,0,0.707
	c0.098,0.098,0.226,0.147,0.354,0.147c0.128,0,0.256-0.049,0.353-0.147l2.497-2.497C17.924,22.158,17.924,21.842,17.729,21.646z"/>
<path style="fill:#231F20;" d="M21.021,21.646l-2.497,2.497c-0.195,0.195-0.195,0.512,0,0.707c0.098,0.098,0.226,0.147,0.353,0.147
	c0.128,0,0.256-0.049,0.354-0.147l2.497-2.497c0.195-0.195,0.195-0.512,0-0.707C21.533,21.451,21.217,21.451,21.021,21.646z"/>
<path style="fill:#231F20;" d="M17.021,25.646l-1,1c-0.195,0.195-0.195,0.512,0,0.707c0.098,0.098,0.226,0.146,0.354,0.146
	s0.256-0.049,0.354-0.146l1-1c0.195-0.195,0.195-0.512,0-0.707C17.533,25.451,17.217,25.451,17.021,25.646z"/>
<path style="fill:#231F20;" d="M13.021,25.646l-1,1c-0.195,0.195-0.195,0.512,0,0.707c0.098,0.098,0.226,0.146,0.354,0.146
	s0.256-0.049,0.354-0.146l1-1c0.195-0.195,0.195-0.512,0-0.707C13.533,25.451,13.217,25.451,13.021,25.646z"/>
<path style="fill:#231F20;" d="M9.021,25.646l-1,1c-0.195,0.195-0.195,0.512,0,0.707C8.119,27.451,8.247,27.5,8.375,27.5
	s0.256-0.049,0.354-0.146l1-1c0.195-0.195,0.195-0.512,0-0.707C9.533,25.451,9.217,25.451,9.021,25.646z"/>
<path style="fill:#231F20;" d="M5.021,25.646l-1,1c-0.195,0.195-0.195,0.512,0,0.707C4.119,27.451,4.247,27.5,4.375,27.5
	s0.256-0.049,0.354-0.146l1-1c0.195-0.195,0.195-0.512,0-0.707C5.533,25.451,5.217,25.451,5.021,25.646z"/>
</svg>
