<?xml version="1.0" encoding="iso-8859-1"?>
<!-- Generator: Adobe Illustrator 17.1.0, SVG Export Plug-In . SVG Version: 6.00 Build 0)  -->
<!DOCTYPE svg PUBLIC "-//W3C//DTD SVG 1.1//EN" "http://www.w3.org/Graphics/SVG/1.1/DTD/svg11.dtd">
<svg version="1.1" id="Layer_1" xmlns="http://www.w3.org/2000/svg" xmlns:xlink="http://www.w3.org/1999/xlink" x="0px" y="0px"
	 viewBox="0 0 32 32" style="enable-background:new 0 0 32 32;" xml:space="preserve">
<path style="fill:#231F20;" d="M5,17.75c0.276,0,0.5-0.224,0.5-0.5c0-2.575,2.06-4.75,4.5-4.75c0.63,0,1.252,0.137,1.85,0.408
	c0.145,0.066,0.313,0.059,0.454-0.021c0.139-0.08,0.231-0.221,0.249-0.38C12.805,10.223,14.716,8.5,17,8.5
	c2.135,0,3.989,1.518,4.41,3.609c0.048,0.239,0.252,0.388,0.505,0.401c0.036-0.002,0.071-0.005,0.085-0.01
	c2.439,0,4.5,2.175,4.5,4.75c0,0.276,0.224,0.5,0.5,0.5c0.276,0,0.5-0.224,0.5-0.5c0-3.014-2.356-5.576-5.206-5.742
	C21.634,9.163,19.47,7.5,17,7.5c-2.579,0-4.771,1.794-5.335,4.265C11.122,11.589,10.564,11.5,10,11.5c-2.981,0-5.5,2.633-5.5,5.75
	C4.5,17.526,4.724,17.75,5,17.75z"/>
<path style="fill:#231F20;" d="M5,20h22c0.276,0,0.5-0.224,0.5-0.5S27.276,19,27,19H5c-0.276,0-0.5,0.224-0.5,0.5S4.724,20,5,20z"/>
<path style="fill:#231F20;" d="M5,22h22c0.276,0,0.5-0.224,0.5-0.5S27.276,21,27,21H5c-0.276,0-0.5,0.224-0.5,0.5S4.724,22,5,22z"/>
<path style="fill:#231F20;" d="M5,24h22c0.276,0,0.5-0.224,0.5-0.5S27.276,23,27,23H5c-0.276,0-0.5,0.224-0.5,0.5S4.724,24,5,24z"/>
</svg>
