<?xml version="1.0" encoding="iso-8859-1"?>
<!-- Generator: Adobe Illustrator 17.1.0, SVG Export Plug-In . SVG Version: 6.00 Build 0)  -->
<!DOCTYPE svg PUBLIC "-//W3C//DTD SVG 1.1//EN" "http://www.w3.org/Graphics/SVG/1.1/DTD/svg11.dtd">
<svg version="1.1" id="Layer_1" xmlns="http://www.w3.org/2000/svg" xmlns:xlink="http://www.w3.org/1999/xlink" x="0px" y="0px"
	 viewBox="0 0 32 32" style="enable-background:new 0 0 32 32;" xml:space="preserve">
<path style="fill:#231F20;" d="M21.847,7H23c0.276,0,0.5-0.224,0.5-0.5S23.276,6,23,6h-1.153C17.594,6,14,9.435,14,13.5v6
	c0,4.065,3.594,7.5,7.847,7.5H23c0.276,0,0.5-0.224,0.5-0.5S23.276,26,23,26h-1.153C18.2,26,15,22.963,15,19.5v-6
	C15,10.038,18.2,7,21.847,7z"/>
<path style="fill:#231F20;" d="M9.153,4.583c-1.654,0-3,1.346-3,3s1.346,3,3,3s3-1.346,3-3S10.807,4.583,9.153,4.583z M9.153,9.583
	c-1.103,0-2-0.897-2-2s0.897-2,2-2c1.103,0,2,0.897,2,2S10.256,9.583,9.153,9.583z"/>
</svg>
