<?xml version="1.0" encoding="iso-8859-1"?>
<!-- Generator: Adobe Illustrator 17.1.0, SVG Export Plug-In . SVG Version: 6.00 Build 0)  -->
<!DOCTYPE svg PUBLIC "-//W3C//DTD SVG 1.1//EN" "http://www.w3.org/Graphics/SVG/1.1/DTD/svg11.dtd">
<svg version="1.1" id="Layer_1" xmlns="http://www.w3.org/2000/svg" xmlns:xlink="http://www.w3.org/1999/xlink" x="0px" y="0px"
	 viewBox="0 0 32 32" style="enable-background:new 0 0 32 32;" xml:space="preserve">
<path style="fill:#231F20;" d="M23,6h-1.153C17.594,6,14,9.435,14,13.5V17h-3c-0.276,0-0.5,0.224-0.5,0.5S10.724,18,11,18h3v9
	c0,0.276,0.224,0.5,0.5,0.5c0.276,0,0.5-0.224,0.5-0.5v-9h3c0.276,0,0.5-0.224,0.5-0.5S18.276,17,18,17h-3v-3.5
	c0-3.462,3.2-6.5,6.847-6.5H23c0.276,0,0.5-0.224,0.5-0.5S23.276,6,23,6z"/>
<path style="fill:#231F20;" d="M12.153,7.583c0-1.654-1.346-3-3-3s-3,1.346-3,3s1.346,3,3,3S12.153,9.238,12.153,7.583z
	 M9.153,9.583c-1.103,0-2-0.897-2-2s0.897-2,2-2c1.103,0,2,0.897,2,2S10.256,9.583,9.153,9.583z"/>
</svg>
