<?xml version="1.0" encoding="iso-8859-1"?>
<!-- Generator: Adobe Illustrator 17.1.0, SVG Export Plug-In . SVG Version: 6.00 Build 0)  -->
<!DOCTYPE svg PUBLIC "-//W3C//DTD SVG 1.1//EN" "http://www.w3.org/Graphics/SVG/1.1/DTD/svg11.dtd">
<svg version="1.1" id="Layer_1" xmlns="http://www.w3.org/2000/svg" xmlns:xlink="http://www.w3.org/1999/xlink" x="0px" y="0px"
	 viewBox="0 0 32 32" style="enable-background:new 0 0 32 32;" xml:space="preserve">
<path style="fill:#231F20;" d="M22.294,7.926C21.634,5.58,19.471,3.917,17,3.917c-2.579,0-4.771,1.793-5.335,4.265
	C11.122,8.005,10.564,7.917,10,7.917c-2.93,0-5.5,2.823-5.5,6.042C4.5,17.177,7.07,20,10,20h12c2.93,0,5.5-2.823,5.5-6.042
	C27.5,10.848,25.1,8.106,22.294,7.926z M22,19H10c-2.576,0-4.5-2.662-4.5-5.042S7.424,8.917,10,8.917
	c0.63,0,1.252,0.137,1.849,0.408c0.145,0.066,0.314,0.058,0.454-0.021c0.139-0.079,0.232-0.221,0.25-0.379
	C12.805,6.639,14.717,4.917,17,4.917c2.135,0,3.99,1.518,4.41,3.609c0.047,0.234,0.252,0.401,0.49,0.401
	c0.044,0,0.084-0.004,0.1-0.01c2.576,0,4.5,2.662,4.5,5.042S24.576,19,22,19z"/>
<path style="fill:#231F20;" d="M12.479,27.999c0.098,0.098,0.226,0.147,0.354,0.147c0.127,0,0.255-0.048,0.352-0.146l3.167-3.146
	c0.144-0.143,0.187-0.358,0.11-0.545C16.385,24.122,16.203,24,16,24h-1.282l2.097-2.127c0.194-0.197,0.192-0.513-0.005-0.707
	c-0.197-0.194-0.513-0.192-0.707,0.005l-2.937,2.978c-0.142,0.144-0.183,0.358-0.106,0.544C13.14,24.879,13.321,25,13.523,25h1.264
	l-2.306,2.292C12.285,27.486,12.284,27.803,12.479,27.999z"/>
</svg>
