<?xml version="1.0" encoding="iso-8859-1"?>
<!-- Generator: Adobe Illustrator 17.1.0, SVG Export Plug-In . SVG Version: 6.00 Build 0)  -->
<!DOCTYPE svg PUBLIC "-//W3C//DTD SVG 1.1//EN" "http://www.w3.org/Graphics/SVG/1.1/DTD/svg11.dtd">
<svg version="1.1" id="Layer_1" xmlns="http://www.w3.org/2000/svg" xmlns:xlink="http://www.w3.org/1999/xlink" x="0px" y="0px"
	 viewBox="0 0 32 32" style="enable-background:new 0 0 32 32;" xml:space="preserve">
<path style="fill:#231F20;" d="M7.261,17.983c0.276,0,0.5-0.224,0.5-0.5c0-3.986,3.243-7.229,7.229-7.229
	c3.986,0,7.229,3.243,7.229,7.229c0,0.276,0.224,0.5,0.5,0.5c0.276,0,0.5-0.224,0.5-0.5c0-4.538-3.691-8.229-8.229-8.229
	c-4.537,0-8.229,3.691-8.229,8.229C6.761,17.759,6.984,17.983,7.261,17.983z"/>
<path style="fill:#231F20;" d="M14.5,18.5c-0.276,0-0.5,0.224-0.5,0.5v5.803c0,1.78,1.457,3.228,3.247,3.228
	c1.83,0,3.627-1.685,3.627-3.402c0-0.276-0.224-0.5-0.5-0.5c-0.276,0-0.5,0.224-0.5,0.5c0,1.167-1.351,2.402-2.627,2.402
	c-1.239,0-2.247-0.999-2.247-2.228V19C15,18.724,14.776,18.5,14.5,18.5z"/>
<path style="fill:#231F20;" d="M8.597,7.32l2.496-2.497c0.195-0.195,0.195-0.512,0-0.707c-0.195-0.195-0.512-0.195-0.707,0
	L7.89,6.613c-0.195,0.195-0.195,0.512,0,0.707c0.098,0.098,0.226,0.147,0.354,0.147C8.371,7.467,8.499,7.418,8.597,7.32z"/>
<path style="fill:#231F20;" d="M12.597,7.32l2.496-2.497c0.195-0.195,0.195-0.512,0-0.707c-0.195-0.195-0.512-0.195-0.707,0
	L11.89,6.613c-0.195,0.195-0.195,0.512,0,0.707c0.098,0.098,0.226,0.147,0.354,0.147C12.371,7.467,12.499,7.418,12.597,7.32z"/>
<path style="fill:#231F20;" d="M16.597,7.32l2.496-2.497c0.195-0.195,0.195-0.512,0-0.707c-0.195-0.195-0.512-0.195-0.707,0
	L15.89,6.613c-0.195,0.195-0.195,0.512,0,0.707c0.098,0.098,0.226,0.147,0.354,0.147C16.371,7.467,16.499,7.418,16.597,7.32z"/>
<path style="fill:#231F20;" d="M20.597,7.32l2.496-2.497c0.195-0.195,0.195-0.512,0-0.707c-0.195-0.195-0.512-0.195-0.707,0
	L19.89,6.613c-0.195,0.195-0.195,0.512,0,0.707c0.098,0.098,0.226,0.147,0.354,0.147C20.371,7.467,20.499,7.418,20.597,7.32z"/>
</svg>
