<?xml version="1.0" encoding="iso-8859-1"?>
<!-- Generator: Adobe Illustrator 17.1.0, SVG Export Plug-In . SVG Version: 6.00 Build 0)  -->
<!DOCTYPE svg PUBLIC "-//W3C//DTD SVG 1.1//EN" "http://www.w3.org/Graphics/SVG/1.1/DTD/svg11.dtd">
<svg version="1.1" id="Layer_1" xmlns="http://www.w3.org/2000/svg" xmlns:xlink="http://www.w3.org/1999/xlink" x="0px" y="0px"
	 viewBox="0 0 32 32" style="enable-background:new 0 0 32 32;" xml:space="preserve">
<path style="fill:#231F20;" d="M22.293,7.425C21.634,5.079,19.47,3.417,17,3.417c-2.579,0-4.771,1.793-5.335,4.265
	C11.122,7.505,10.564,7.417,10,7.417c-2.981,0-5.5,2.652-5.5,5.792C4.5,16.348,7.019,19,10,19h12c2.981,0,5.5-2.652,5.5-5.792
	C27.5,10.172,25.144,7.592,22.293,7.425z M22,18H10c-2.397,0-4.5-2.239-4.5-4.792c0-2.553,2.103-4.792,4.5-4.792
	c0.63,0,1.252,0.137,1.849,0.408c0.146,0.066,0.314,0.058,0.454-0.021c0.139-0.079,0.232-0.221,0.25-0.379
	C12.805,6.139,14.717,4.417,17,4.417c2.135,0,3.99,1.518,4.41,3.609c0.047,0.234,0.252,0.401,0.49,0.401
	c0.046,0.005,0.085-0.004,0.1-0.01c2.397,0,4.5,2.239,4.5,4.792C26.5,15.761,24.397,18,22,18z"/>
<path style="fill:#231F20;" d="M11.486,28.13c0.097,0.094,0.222,0.141,0.348,0.141c0.131,0,0.261-0.051,0.359-0.152l3.167-3.271
	c0.14-0.144,0.179-0.358,0.101-0.543C15.382,24.12,15.201,24,15,24h-1.204l2.004-1.862c0.202-0.188,0.214-0.504,0.026-0.707
	c-0.189-0.202-0.505-0.214-0.707-0.026l-2.936,2.728c-0.15,0.14-0.2,0.358-0.125,0.549C12.133,24.874,12.317,25,12.523,25h1.297
	l-2.346,2.423C11.282,27.622,11.287,27.938,11.486,28.13z"/>
<path style="fill:#231F20;" d="M18.606,24.267l2.497-2.497c0.195-0.195,0.195-0.512,0-0.707c-0.195-0.195-0.512-0.195-0.707,0
	l-2.497,2.497c-0.195,0.195-0.195,0.512,0,0.707c0.098,0.098,0.226,0.147,0.354,0.147C18.381,24.414,18.509,24.365,18.606,24.267z"
	/>
<path style="fill:#231F20;" d="M8.606,24.267l2.497-2.497c0.195-0.195,0.195-0.512,0-0.707c-0.195-0.195-0.512-0.195-0.707,0
	L7.899,23.56c-0.195,0.195-0.195,0.512,0,0.707c0.098,0.098,0.226,0.147,0.353,0.147C8.381,24.414,8.509,24.365,8.606,24.267z"/>
</svg>
