<?xml version="1.0" encoding="iso-8859-1"?>
<!-- Generator: Adobe Illustrator 17.1.0, SVG Export Plug-In . SVG Version: 6.00 Build 0)  -->
<!DOCTYPE svg PUBLIC "-//W3C//DTD SVG 1.1//EN" "http://www.w3.org/Graphics/SVG/1.1/DTD/svg11.dtd">
<svg version="1.1" id="Layer_1" xmlns="http://www.w3.org/2000/svg" xmlns:xlink="http://www.w3.org/1999/xlink" x="0px" y="0px"
	 viewBox="0 0 32 32" style="enable-background:new 0 0 32 32;" xml:space="preserve">
<path style="fill:#231F20;" d="M10,21h12c3.147,0,5.5-3.234,5.5-6.125c0-2.801-2.207-5.922-5.206-6.116
	C21.634,6.413,19.471,4.75,17,4.75c-2.579,0-4.771,1.794-5.335,4.265C11.122,8.839,10.564,8.75,10,8.75
	c-3.148,0-5.5,3.234-5.5,6.125S6.852,21,10,21z M10,9.75c0.63,0,1.252,0.137,1.85,0.408c0.146,0.067,0.313,0.058,0.454-0.021
	c0.139-0.08,0.232-0.221,0.249-0.38C12.805,7.473,14.716,5.75,17,5.75c2.135,0,3.989,1.518,4.41,3.609
	c0.048,0.238,0.271,0.399,0.505,0.401C21.951,9.759,21.986,9.755,22,9.75c2.534,0,4.5,2.755,4.5,5.125S24.534,20,22,20H10
	c-2.534,0-4.5-2.755-4.5-5.125S7.466,9.75,10,9.75z"/>
<path style="fill:#231F20;" d="M11,23v4c0,0.276,0.224,0.5,0.5,0.5c0.276,0,0.5-0.224,0.5-0.5v-4c0-0.276-0.224-0.5-0.5-0.5
	C11.224,22.5,11,22.724,11,23z"/>
<path style="fill:#231F20;" d="M17,23v4c0,0.276,0.224,0.5,0.5,0.5c0.276,0,0.5-0.224,0.5-0.5v-4c0-0.276-0.224-0.5-0.5-0.5
	C17.224,22.5,17,22.724,17,23z"/>
<path style="fill:#231F20;" d="M14,23v2c0,0.276,0.224,0.5,0.5,0.5c0.276,0,0.5-0.224,0.5-0.5v-2c0-0.276-0.224-0.5-0.5-0.5
	C14.224,22.5,14,22.724,14,23z"/>
<path style="fill:#231F20;" d="M20,23v2c0,0.276,0.224,0.5,0.5,0.5c0.276,0,0.5-0.224,0.5-0.5v-2c0-0.276-0.224-0.5-0.5-0.5
	C20.224,22.5,20,22.724,20,23z"/>
</svg>
