<?xml version="1.0" encoding="iso-8859-1"?>
<!-- Generator: Adobe Illustrator 17.1.0, SVG Export Plug-In . SVG Version: 6.00 Build 0)  -->
<!DOCTYPE svg PUBLIC "-//W3C//DTD SVG 1.1//EN" "http://www.w3.org/Graphics/SVG/1.1/DTD/svg11.dtd">
<svg version="1.1" id="Layer_1" xmlns="http://www.w3.org/2000/svg" xmlns:xlink="http://www.w3.org/1999/xlink" x="0px" y="0px"
	 viewBox="0 0 32 32" style="enable-background:new 0 0 32 32;" xml:space="preserve">
<path style="fill:#231F20;" d="M9.833,21h12c2.93,0,5.5-2.804,5.5-6c0-3.089-2.4-5.811-5.206-5.991C21.468,6.663,19.305,5,16.833,5
	c-2.579,0-4.77,1.793-5.335,4.265C10.956,9.089,10.397,9,9.833,9c-2.93,0-5.5,2.804-5.5,6S6.904,21,9.833,21z M9.833,10
	c0.63,0,1.252,0.137,1.849,0.408c0.146,0.066,0.314,0.059,0.454-0.021c0.139-0.079,0.232-0.22,0.25-0.379
	C12.638,7.723,14.55,6,16.833,6c2.135,0,3.99,1.518,4.41,3.608c0.048,0.239,0.254,0.39,0.505,0.402
	c0.036-0.002,0.071-0.005,0.085-0.01c2.575,0,4.5,2.64,4.5,5s-1.925,5-4.5,5h-12c-2.576,0-4.5-2.64-4.5-5S7.258,10,9.833,10z"/>
<circle style="fill:#231F20;" cx="12.833" cy="25" r="0.5"/>
<circle style="fill:#231F20;" cx="17.833" cy="25" r="0.5"/>
<circle style="fill:#231F20;" cx="15.833" cy="23" r="0.5"/>
<circle style="fill:#231F20;" cx="20.833" cy="23" r="0.5"/>
<circle style="fill:#231F20;" cx="14.833" cy="27" r="0.5"/>
<circle style="fill:#231F20;" cx="10.833" cy="23" r="0.5"/>
</svg>
