<?xml version="1.0" encoding="iso-8859-1"?>
<!-- Generator: Adobe Illustrator 17.1.0, SVG Export Plug-In . SVG Version: 6.00 Build 0)  -->
<!DOCTYPE svg PUBLIC "-//W3C//DTD SVG 1.1//EN" "http://www.w3.org/Graphics/SVG/1.1/DTD/svg11.dtd">
<svg version="1.1" id="Layer_1" xmlns="http://www.w3.org/2000/svg" xmlns:xlink="http://www.w3.org/1999/xlink" x="0px" y="0px"
	 viewBox="0 0 32 32" style="enable-background:new 0 0 32 32;" xml:space="preserve">
<path style="fill:#231F20;" d="M24,15h-7.293l5.157-5.157c0.195-0.195,0.195-0.512,0-0.707c-0.195-0.195-0.512-0.195-0.707,0
	L16,14.293V7c0-0.276-0.224-0.5-0.5-0.5C15.224,6.5,15,6.724,15,7v7.293L9.843,9.136c-0.195-0.195-0.512-0.195-0.707,0
	c-0.195,0.195-0.195,0.512,0,0.707L14.293,15H7c-0.276,0-0.5,0.224-0.5,0.5S6.724,16,7,16h7.293l-5.157,5.157
	c-0.195,0.195-0.195,0.512,0,0.707c0.098,0.098,0.226,0.146,0.354,0.146c0.128,0,0.256-0.049,0.354-0.146L15,16.707V24
	c0,0.276,0.224,0.5,0.5,0.5c0.276,0,0.5-0.224,0.5-0.5v-7.293l5.157,5.157c0.098,0.098,0.226,0.146,0.354,0.146
	c0.128,0,0.256-0.049,0.354-0.146c0.195-0.195,0.195-0.512,0-0.707L16.707,16H24c0.276,0,0.5-0.224,0.5-0.5S24.276,15,24,15z"/>
</svg>
