<?xml version="1.0" encoding="iso-8859-1"?>
<!-- Generator: Adobe Illustrator 17.1.0, SVG Export Plug-In . SVG Version: 6.00 Build 0)  -->
<!DOCTYPE svg PUBLIC "-//W3C//DTD SVG 1.1//EN" "http://www.w3.org/Graphics/SVG/1.1/DTD/svg11.dtd">
<svg version="1.1" id="Layer_1" xmlns="http://www.w3.org/2000/svg" xmlns:xlink="http://www.w3.org/1999/xlink" x="0px" y="0px"
	 viewBox="0 0 32 32" style="enable-background:new 0 0 32 32;" xml:space="preserve">
<path style="fill:#231F20;" d="M19.5,7.5C19.776,7.5,20,7.276,20,7V5c0-0.276-0.224-0.5-0.5-0.5C19.224,4.5,19,4.724,19,5v2
	C19,7.276,19.224,7.5,19.5,7.5z"/>
<path style="fill:#231F20;" d="M30,15h-2c-0.276,0-0.5,0.224-0.5,0.5S27.724,16,28,16h2c0.276,0,0.5-0.224,0.5-0.5S30.276,15,30,15z
	"/>
<path style="fill:#231F20;" d="M19.25,28c2.981,0,5.5-2.585,5.5-5.646c0-1.29-0.466-2.481-1.207-3.444
	c1.248-1.105,1.966-2.672,1.966-4.347c0-3.206-2.608-5.814-5.814-5.814c-2.484,0-4.712,1.624-5.5,3.965
	c-2.554,0.026-4.719,1.807-5.279,4.26c-0.543-0.176-1.101-0.265-1.665-0.265c-2.981,0-5.5,2.585-5.5,5.646
	C1.75,25.415,4.269,28,7.25,28H19.25z M19.694,9.749c2.654,0,4.814,2.16,4.814,4.814c0,1.393-0.599,2.696-1.641,3.611
	c-0.907-0.832-2.059-1.384-3.324-1.457c-0.571-2.029-2.268-3.541-4.314-3.914C15.948,10.99,17.72,9.749,19.694,9.749z M2.75,22.354
	c0-2.518,2.06-4.646,4.5-4.646c0.63,0,1.252,0.137,1.849,0.408c0.145,0.066,0.314,0.058,0.454-0.021
	c0.139-0.079,0.232-0.221,0.25-0.38c0.252-2.284,2.165-4.007,4.448-4.007c2.135,0,3.99,1.518,4.41,3.608
	c0.047,0.234,0.252,0.401,0.49,0.401c0.036,0,0.081-0.005,0.1-0.01c2.439,0,4.5,2.127,4.5,4.646c0,2.519-2.061,4.646-4.5,4.646h-12
	C4.81,27,2.75,24.873,2.75,22.354z"/>
<path style="fill:#231F20;" d="M13.386,9.768c0.098,0.098,0.226,0.146,0.354,0.146c0.128,0,0.256-0.049,0.354-0.146
	c0.195-0.195,0.195-0.512,0-0.707l-1.415-1.414c-0.195-0.195-0.512-0.195-0.707,0c-0.195,0.195-0.195,0.512,0,0.707L13.386,9.768z"
	/>
<path style="fill:#231F20;" d="M25.76,9.914c0.128,0,0.256-0.049,0.354-0.146l1.415-1.414c0.195-0.195,0.195-0.512,0-0.707
	c-0.195-0.195-0.512-0.195-0.707,0l-1.415,1.414c-0.195,0.195-0.195,0.512,0,0.707C25.504,9.865,25.632,9.914,25.76,9.914z"/>
<path style="fill:#231F20;" d="M25.982,20.364l1.414,1.414c0.098,0.098,0.226,0.147,0.354,0.147c0.128,0,0.256-0.049,0.353-0.147
	c0.195-0.195,0.195-0.512,0-0.707l-1.414-1.415c-0.195-0.195-0.512-0.195-0.707,0C25.787,19.852,25.787,20.169,25.982,20.364z"/>
</svg>
