<?xml version="1.0" encoding="iso-8859-1"?>
<!-- Generator: Adobe Illustrator 17.1.0, SVG Export Plug-In . SVG Version: 6.00 Build 0)  -->
<!DOCTYPE svg PUBLIC "-//W3C//DTD SVG 1.1//EN" "http://www.w3.org/Graphics/SVG/1.1/DTD/svg11.dtd">
<svg version="1.1" id="Layer_1" xmlns="http://www.w3.org/2000/svg" xmlns:xlink="http://www.w3.org/1999/xlink" x="0px" y="0px"
	 viewBox="0 0 32 32" style="enable-background:new 0 0 32 32;" xml:space="preserve">
<path style="fill:#231F20;" d="M16.167,23.833c4.411,0,8-3.589,8-8s-3.589-8-8-8s-8,3.589-8,8S11.755,23.833,16.167,23.833z
	 M16.167,8.833c3.86,0,7,3.14,7,7s-3.14,7-7,7s-7-3.14-7-7S12.307,8.833,16.167,8.833z"/>
<path style="fill:#231F20;" d="M15.5,5.5C15.776,5.5,16,5.276,16,5V1c0-0.276-0.224-0.5-0.5-0.5S15,0.724,15,1v4
	C15,5.276,15.224,5.5,15.5,5.5z"/>
<path style="fill:#231F20;" d="M16,31v-4c0-0.276-0.224-0.5-0.5-0.5S15,26.724,15,27v4c0,0.276,0.224,0.5,0.5,0.5S16,31.276,16,31z"
	/>
<path style="fill:#231F20;" d="M5.5,16.5C5.5,16.224,5.276,16,5,16H1c-0.276,0-0.5,0.224-0.5,0.5S0.724,17,1,17h4
	C5.276,17,5.5,16.776,5.5,16.5z"/>
<path style="fill:#231F20;" d="M31,16h-4c-0.276,0-0.5,0.224-0.5,0.5S26.724,17,27,17h4c0.276,0,0.5-0.224,0.5-0.5S31.276,16,31,16z
	"/>
<path style="fill:#231F20;" d="M6.08,26.794l2.829-2.829c0.195-0.195,0.195-0.512,0-0.707c-0.195-0.195-0.512-0.195-0.707,0
	l-2.829,2.829c-0.195,0.195-0.195,0.512,0,0.707c0.098,0.098,0.226,0.146,0.354,0.146C5.854,26.94,5.982,26.891,6.08,26.794z"/>
<path style="fill:#231F20;" d="M24.111,8.555c0.128,0,0.256-0.049,0.354-0.146l2.829-2.829c0.195-0.195,0.195-0.512,0-0.707
	c-0.195-0.195-0.512-0.195-0.707,0l-2.829,2.829c-0.195,0.195-0.195,0.512,0,0.707C23.855,8.506,23.983,8.555,24.111,8.555z"/>
<path style="fill:#231F20;" d="M24.465,23.258c-0.195-0.195-0.512-0.195-0.707,0c-0.195,0.195-0.195,0.512,0,0.707l2.829,2.829
	c0.098,0.098,0.226,0.146,0.354,0.146c0.128,0,0.256-0.049,0.354-0.146c0.195-0.195,0.195-0.512,0-0.707L24.465,23.258z"/>
<path style="fill:#231F20;" d="M8.202,8.409c0.098,0.098,0.226,0.146,0.354,0.146c0.128,0,0.256-0.049,0.354-0.146
	c0.195-0.195,0.195-0.512,0-0.707L6.08,4.873c-0.195-0.195-0.512-0.195-0.707,0c-0.195,0.195-0.195,0.512,0,0.707L8.202,8.409z"/>
</svg>
