<?xml version="1.0" encoding="iso-8859-1"?>
<!-- Generator: Adobe Illustrator 17.1.0, SVG Export Plug-In . SVG Version: 6.00 Build 0)  -->
<!DOCTYPE svg PUBLIC "-//W3C//DTD SVG 1.1//EN" "http://www.w3.org/Graphics/SVG/1.1/DTD/svg11.dtd">
<svg version="1.1" id="Layer_1" xmlns="http://www.w3.org/2000/svg" xmlns:xlink="http://www.w3.org/1999/xlink" x="0px" y="0px"
	 viewBox="0 0 32 32" style="enable-background:new 0 0 32 32;" xml:space="preserve">
<path style="fill:#231F20;" d="M19,19.752V7.702C19,5.661,17.654,4,16,4s-3,1.661-3,3.702v12.05c-1.257,0.943-2,2.419-2,3.998
	c0,2.757,2.243,5,5,5s5-2.243,5-5C21,22.171,20.257,20.695,19,19.752z M16,27.75c-2.206,0-4-1.794-4-4
	c0-1.336,0.665-2.579,1.778-3.325C13.917,20.332,14,20.177,14,20.01V7.702C14,6.237,14.916,5,16,5s2,1.237,2,2.702V20.01
	c0,0.167,0.083,0.322,0.222,0.415C19.335,21.171,20,22.414,20,23.75C20,25.956,18.206,27.75,16,27.75z"/>
<path style="fill:#231F20;" d="M17,21.711V8.304C17,7.587,16.55,7,16,7c-0.55,0-1,0.587-1,1.304v13.407
	c-0.882,0.386-1.5,1.264-1.5,2.289c0,1.381,1.119,2.5,2.5,2.5s2.5-1.119,2.5-2.5C18.5,22.975,17.882,22.097,17,21.711z"/>
</svg>
